<svg viewBox="0 0 88 44" id="fip-rect" xmlns="http://www.w3.org/2000/svg" ><path fill="#E2007A" d="M0 0h88v44H0z"/><path fill="#fff" d="M49.304 19.6889c-1.7249 0-2.3422 1.1288-2.3422 3.3435 0 2.1082.575 3.3223 2.2147 3.3223 1.6185 0 2.4064-1.2564 2.4064-3.4925 0-2.0234-.8095-3.1733-2.2789-3.1733Zm-5.2599 12.0744V20.1574c0-.8944 0-1.7673-.0212-2.6617h2.9601c.0426.2979.1065.9794.1065 1.3841.4685-.8091 1.4482-1.6398 3.1942-1.6398 2.4918 0 4.3871 2.0867 4.3871 5.4945 0 3.8971-2.1296 6.0479-4.7918 6.0479-1.5543 0-2.3638-.5962-2.7895-1.2354v4.2163h-3.0454Zm-4.1574-14.2676h3.0668v11.031h-3.0668v-11.031Zm0-1.7891v-2.726h3.0668v2.726h-3.0668ZM33.855 28.5267v-8.7315h-1.6185v-2.2995h1.6185v-.9587c0-2.2784 1.129-3.7694 3.5139-3.7694.4897 0 1.1288.0428 1.4055.1281v2.4065c-.1703-.0216-.4046-.0428-.6387-.0428-.8945 0-1.2354.3195-1.2354 1.5122v.7241h1.9168v2.2995h-1.9168v8.7315H33.855Z"/></svg>
