<svg viewBox="0 0 56 56" xmlns="http://www.w3.org/2000/svg" id="fip-square"><path d="M0 56h56V0H0v56Z" fill="#E2007A"/><path d="M25.841 36.513c-2.195 0-2.98 1.437-2.98 4.256 0 2.683.731 4.228 2.818 4.228 2.06 0 3.063-1.6 3.063-4.445 0-2.575-1.03-4.039-2.9-4.039Zm-6.694 15.368V37.109c0-1.138 0-2.249-.027-3.387h3.767c.055.38.136 1.246.136 1.761.596-1.03 1.843-2.086 4.065-2.086 3.172 0 5.584 2.655 5.584 6.992 0 4.96-2.71 7.698-6.099 7.698-1.978 0-3.008-.759-3.55-1.573v5.367h-3.876Zm-5.291-18.16h3.903v14.04h-3.903v-14.04Zm0-2.276v-3.47h3.903v3.47h-3.903ZM6.179 47.76V36.648H4.12v-2.926h2.06v-1.22c0-2.9 1.437-4.798 4.472-4.798.624 0 1.437.055 1.79.163v3.063a6.721 6.721 0 0 0-.814-.054c-1.138 0-1.572.406-1.572 1.924v.922h2.44v2.926h-2.44v11.113H6.179Z" fill="#fff"/><path d="M45.536 18.48c-3.504 0-6.345-2.696-6.345-6.02 0-.408.044-.806.125-1.192H42.9a2.64 2.64 0 0 0-.283 1.192c0 1.53 1.307 2.77 2.92 2.77.358 0 .703-.062 1.02-.174v3.346a6.708 6.708 0 0 1-1.02.078Zm6.196-4.72h-3.617c.217-.388.34-.83.34-1.3 0-1.53-1.306-2.77-2.919-2.77-.302 0-.593.043-.866.124V4.12h3.141v2.72c2.38.868 4.07 3.057 4.07 5.621 0 .446-.052.881-.149 1.3Z" fill="#F8A6D7"/></svg>
