<svg viewBox="0 0 88 44" xmlns="http://www.w3.org/2000/svg" id="franceinfo-rect"><path d="M0 0h88v44H0z" fill="#FFC300"/><path d="M17.63 16.008a3.759 3.759 0 0 0-.984-.115c-.843 0-1.495.307-1.93.729-.434.421-.664 1.022-.664 2.019v.255h-1.598v1.406h1.598v4.793h1.661v-4.793h1.917v-1.406h-1.917v-.191c0-.575.09-.805.23-.984.205-.243.524-.358.933-.358.153 0 .358.025.499.064l.255-1.419Zm4.729 2.812c-.179-.026-.32-.051-.562-.051-.755 0-1.432.294-1.803.754v-.627h-1.597v6.199h1.661v-3.898c.205-.37.78-.895 1.509-.895.242 0 .485.026.6.064l.192-1.546Zm4.856 4.102c-.319.46-.869.767-1.495.767-.933 0-1.636-.716-1.636-1.687 0-.895.627-1.7 1.598-1.7.639 0 1.189.307 1.534.767v1.853Zm1.662-4.026h-1.598v.499a2.84 2.84 0 0 0-1.814-.626c-1.687 0-3.042 1.405-3.042 3.233 0 .844.307 1.61.792 2.173.55.639 1.419 1.048 2.34 1.048.625 0 1.213-.192 1.724-.627v.499h1.598v-6.199Zm3.067 6.199v-4.026c.23-.32.805-.767 1.508-.767.384 0 .716.128.933.345.23.23.371.55.371 1.163v3.285h1.661v-3.157c0-1.06-.23-1.687-.639-2.172a2.793 2.793 0 0 0-2.147-.997c-.69 0-1.278.242-1.75.626v-.499h-1.598v6.199h1.661Zm10.096-2.224c-.267.41-.804.818-1.482.818-1.01 0-1.712-.716-1.712-1.687 0-.946.716-1.7 1.674-1.7.6 0 1.1.307 1.431.742l1.176-1.036c-.575-.741-1.533-1.24-2.607-1.24-1.892 0-3.336 1.432-3.336 3.234 0 1.79 1.406 3.22 3.323 3.22 1.163 0 2.084-.421 2.812-1.392l-1.278-.959Zm6.378.294c-.294.32-.856.716-1.559.716-.882 0-1.585-.6-1.674-1.47h4.294c.026-.14.038-.307.038-.473 0-1.725-1.214-3.17-2.926-3.17-1.84 0-3.016 1.509-3.016 3.234 0 1.943 1.393 3.22 3.246 3.22.958 0 1.943-.396 2.543-1.111l-.946-.946Zm-3.156-1.968c.076-.563.639-1.087 1.329-1.087.677 0 1.176.537 1.227 1.087h-2.556Zm6.812-2.301h-1.662v6.199h1.662v-6.199Zm-1.917-2.198c0 .6.485 1.06 1.086 1.06.6 0 1.086-.46 1.086-1.06 0-.6-.486-1.06-1.086-1.06-.6 0-1.087.46-1.087 1.06Zm4.983 8.397v-4.026c.23-.32.806-.767 1.509-.767.383 0 .716.128.933.345.23.23.37.55.37 1.163v3.285h1.662v-3.157c0-1.06-.23-1.687-.639-2.172a2.793 2.793 0 0 0-2.147-.997c-.69 0-1.278.242-1.751.626v-.499h-1.598v6.199h1.662Zm10.097-9.087a3.759 3.759 0 0 0-.984-.115c-.843 0-1.495.307-1.93.729-.434.421-.664 1.022-.664 2.019v.255h-1.598v1.406h1.598v4.793h1.661v-4.793h1.917v-1.406H63.32v-.191c0-.575.09-.805.23-.984.205-.243.525-.358.933-.358.154 0 .358.025.499.064l.255-1.419Zm.128 5.994c0 1.79 1.419 3.22 3.298 3.22 1.878 0 3.297-1.43 3.297-3.22 0-1.79-1.419-3.233-3.297-3.233-1.88 0-3.298 1.444-3.298 3.233Zm1.662 0c0-.933.664-1.7 1.636-1.7.97 0 1.636.767 1.636 1.7 0 .933-.665 1.687-1.636 1.687-.972 0-1.636-.754-1.636-1.687Z" fill="#323232"/><path d="M73.288 19.893c0 .627.498 1.125 1.124 1.125.627 0 1.125-.498 1.125-1.125 0-.626-.498-1.124-1.125-1.124-.626 0-1.124.498-1.124 1.124Zm0 4.205c0 .626.498 1.125 1.124 1.125.627 0 1.125-.499 1.125-1.125s-.498-1.125-1.125-1.125c-.626 0-1.124.499-1.124 1.125Z" fill="#fff"/></svg>
