<svg viewBox="0 0 56 56" xmlns="http://www.w3.org/2000/svg" id="franceinfo-square"><path d="M0 55.994h55.994V0H0v55.994Z" fill="#FFC300"/><path d="M8.57 23.585a2.772 2.772 0 0 0-.725-.085c-.622 0-1.102.226-1.422.537-.32.31-.49.753-.49 1.488v.188H4.756v1.036h1.177v3.532h1.224v-3.532H8.57v-1.036H7.157v-.141c0-.424.066-.593.17-.725.15-.18.386-.264.687-.264.113 0 .264.019.367.047l.189-1.045Zm3.484 2.072c-.132-.02-.235-.038-.414-.038-.556 0-1.055.217-1.328.556v-.462H9.135v4.567h1.224v-2.872c.15-.273.574-.659 1.111-.659.18 0 .358.019.443.047l.141-1.14Zm3.579 3.023c-.236.339-.64.565-1.102.565-.688 0-1.206-.528-1.206-1.244 0-.659.462-1.252 1.178-1.252.47 0 .875.226 1.13.565v1.366Zm1.224-2.967H15.68v.367a2.092 2.092 0 0 0-1.338-.461c-1.243 0-2.24 1.036-2.24 2.383 0 .621.225 1.186.583 1.6a2.296 2.296 0 0 0 1.723.773 1.91 1.91 0 0 0 1.272-.462v.367h1.177v-4.567Zm2.26 4.567v-2.966c.17-.235.593-.565 1.111-.565.283 0 .527.094.688.254.17.17.273.405.273.857v2.42h1.224v-2.326c0-.781-.17-1.243-.47-1.6a2.058 2.058 0 0 0-2.873-.274v-.367h-1.177v4.567h1.224Zm7.44-1.638c-.198.301-.594.603-1.093.603-.744 0-1.262-.528-1.262-1.244 0-.696.528-1.252 1.234-1.252.442 0 .81.226 1.055.546l.866-.763c-.424-.546-1.13-.913-1.921-.913-1.394 0-2.458 1.055-2.458 2.383 0 1.318 1.036 2.373 2.448 2.373.858 0 1.536-.311 2.072-1.027l-.941-.706Zm4.699.216c-.217.236-.631.528-1.15.528-.649 0-1.167-.443-1.233-1.083h3.164c.02-.104.029-.226.029-.349 0-1.27-.895-2.335-2.157-2.335-1.356 0-2.222 1.111-2.222 2.383 0 1.43 1.026 2.373 2.392 2.373.706 0 1.431-.292 1.874-.82l-.697-.697Zm-2.326-1.45c.056-.414.47-.8.98-.8a.91.91 0 0 1 .903.8H28.93Zm5.019-1.695h-1.224v4.567h1.224v-4.567Zm-1.413-1.62c0 .443.358.782.8.782a.784.784 0 0 0 .801-.782.784.784 0 0 0-.8-.781c-.443 0-.8.339-.8.781Zm3.674 6.187v-2.966c.169-.235.592-.565 1.11-.565.283 0 .528.094.688.254.17.17.273.405.273.857v2.42h1.224v-2.326c0-.781-.17-1.243-.47-1.6a2.058 2.058 0 0 0-2.873-.274v-.367h-1.177v4.567h1.224Zm7.439-6.695a2.772 2.772 0 0 0-.725-.085c-.622 0-1.102.226-1.422.537-.32.31-.49.753-.49 1.488v.188h-1.177v1.036h1.177v3.532h1.224v-3.532h1.413v-1.036h-1.413v-.141c0-.424.066-.593.17-.725.15-.18.386-.264.687-.264.113 0 .264.019.367.047l.189-1.045Zm.094 4.417c0 1.318 1.045 2.373 2.43 2.373 1.384 0 2.43-1.055 2.43-2.373 0-1.319-1.046-2.383-2.43-2.383-1.385 0-2.43 1.064-2.43 2.383Zm1.224 0c0-.688.49-1.253 1.206-1.253.715 0 1.205.565 1.205 1.253 0 .687-.49 1.243-1.205 1.243-.716 0-1.206-.556-1.206-1.244Z" fill="#323232"/><path d="M49.58 26.448c0 .461.368.828.83.828a.824.824 0 0 0 .828-.828.824.824 0 0 0-.829-.829.824.824 0 0 0-.828.829Zm0 3.098c0 .461.368.829.83.829a.824.824 0 0 0 .828-.83.824.824 0 0 0-.829-.828.824.824 0 0 0-.828.829Z" fill="#fff"/></svg>
