<svg viewBox="0 0 88 44" xmlns="http://www.w3.org/2000/svg" id="franceculture-rect"><path d="M0 0h88v44H0z" fill="#762B84"/><path d="M54.452 19.207c0 .547-.089 1.063-.822 1.063-.418 0-.604-.258-.604-.556 0-.403.258-.62.959-.62h.467v.113Zm1.127.708v-1.747c0-.999-.612-1.434-1.723-1.442-1.144 0-1.63.482-1.758 1.118l1.066.22c.048-.307.16-.508.643-.508.54 0 .645.29.645.587v.25h-.596c-1.224 0-1.981.443-1.981 1.393 0 .645.419 1.305 1.425 1.305.741 0 1.023-.274 1.176-.507 0 .104.024.33.056.41h1.104c-.025-.096-.057-.676-.057-1.079Zm11.142-1.465c-.008-.483-.201-.894-.765-.894-.547 0-.773.378-.821.894h1.586Zm-1.61.708c0 .524.265 1.031.837 1.031.483 0 .62-.193.733-.443h1.152c-.145.507-.604 1.345-1.91 1.345-1.376 0-1.972-1.023-1.972-2.118 0-1.313.668-2.247 2.013-2.247 1.426 0 1.917 1.04 1.917 2.078 0 .145 0 .234-.016.354H65.11Zm-1.255.491c-.137.693-.629 1.442-1.869 1.442-1.296 0-1.965-.894-1.965-2.15 0-1.232.75-2.215 2.022-2.215 1.4 0 1.795 1.015 1.812 1.482h-1.12c-.072-.338-.266-.572-.716-.572-.532 0-.83.46-.83 1.265 0 .894.322 1.296.821 1.296.403 0 .612-.233.717-.547h1.128Zm-7.812-1.771c0-.354 0-.741-.008-1.055h1.12c.023.113.04.402.047.531.137-.257.476-.628 1.208-.628.838 0 1.378.572 1.378 1.619v2.65h-1.152v-2.521c0-.475-.153-.814-.668-.814-.492 0-.766.274-.766 1.015v2.32h-1.16v-3.117Zm-6.515.08c0-.418 0-.78-.008-1.135h1.135c.017.097.033.507.033.733.185-.475.628-.822 1.336-.83v1.104c-.837-.025-1.336.2-1.336 1.344v1.82h-1.16v-3.036Zm-1.92 3.036v-3.301h-.34v-.87h.34v-.363c0-.861.427-1.425 1.329-1.425.185 0 .427.016.531.048v.91a1.987 1.987 0 0 0-.241-.016c-.338 0-.467.121-.467.572v.274h.588v.87h-.588v3.301h-1.152Zm17.953 5.604c-.016-.967-.403-1.788-1.53-1.788-1.095 0-1.546.757-1.643 1.788h3.173Zm-3.221 1.417c0 1.047.531 2.062 1.675 2.062.966 0 1.24-.387 1.465-.886h2.304c-.29 1.014-1.208 2.69-3.818 2.69-2.754 0-3.946-2.046-3.946-4.236 0-2.625 1.337-4.494 4.027-4.494 2.85 0 3.833 2.078 3.833 4.155 0 .29 0 .467-.032.709H62.34Zm-7.373-2.4c0-.837 0-1.562-.016-2.27h2.271c.032.193.064 1.014.064 1.465.37-.95 1.257-1.643 2.674-1.66v2.207c-1.675-.048-2.674.403-2.674 2.69v3.64h-2.319v-6.072Zm-1.262 3.656c0 .79 0 1.675.015 2.416h-2.254c-.032-.225-.048-.676-.065-.966-.499.837-1.224 1.16-2.303 1.16-1.691 0-2.77-1.031-2.77-3.093v-5.444h2.303v4.977c0 .918.29 1.675 1.289 1.675 1.046 0 1.481-.564 1.481-2.207v-4.445h2.304v5.927Zm-13.16-5.927h1.288V21.09h2.304v2.255h1.643v1.74h-1.643v4.123c0 .628.193.87.886.87.128 0 .354 0 .515-.017v1.579c-.451.16-1.08.16-1.546.16-1.627 0-2.159-.869-2.159-2.334v-4.381h-1.288v-1.74Zm-.756-2.754v11.097h-2.4V20.59h2.4Zm-3.98 8.681c0 .79 0 1.675.015 2.416H33.57c-.032-.225-.048-.676-.064-.966-.5.837-1.224 1.16-2.303 1.16-1.691 0-2.77-1.031-2.77-3.093v-5.444h2.303v4.977c0 .918.29 1.675 1.288 1.675 1.047 0 1.482-.564 1.482-2.207v-4.445h2.303v5.927Zm-8.024-.274c-.274 1.386-1.257 2.884-3.737 2.884-2.593 0-3.93-1.788-3.93-4.3 0-2.465 1.498-4.43 4.043-4.43 2.802 0 3.591 2.03 3.624 2.963h-2.239c-.145-.676-.532-1.143-1.434-1.143-1.063 0-1.658.918-1.658 2.528 0 1.789.644 2.594 1.643 2.594.805 0 1.224-.468 1.433-1.096h2.255Z" fill="#fff"/></svg>
