<svg viewBox="0 0 88 44" fill="none" xmlns="http://www.w3.org/2000/svg" id="radiofrance-rect"><rect width="88" height="44" rx="8" fill="#FAFAFA"/><path d="M17.507 22.0942C17.3353 22.4355 17.239 22.8176 17.239 23.221C17.239 24.6678 18.4752 25.8405 19.9999 25.8405C20.3398 25.8405 20.6652 25.7822 20.9659 25.6756V28.84C20.6514 28.8882 20.3288 28.9137 19.9999 28.9137C16.6862 28.9137 14 26.3651 14 23.221C14 22.8353 14.0408 22.4585 14.1179 22.0942H17.507ZM22.1512 15.3333V17.9056C24.4022 18.7262 26 20.7965 26 23.221C26 23.6432 25.9511 24.0544 25.8593 24.4503H22.4385C22.6442 24.0837 22.7609 23.6654 22.7609 23.221C22.7609 21.7743 21.5248 20.6015 19.9999 20.6015C19.7147 20.6015 19.4394 20.6427 19.1805 20.7189V15.3333H22.1512Z" fill="#212121"/><path d="M32.042 27H33.47L34.212 24.774H37.796L38.538 27H40.344L37.208 17.662H35.136L32.042 27ZM34.632 23.43L35.99 19.258L37.348 23.43H34.632ZM45.2402 24.466C45.0302 25.334 44.5682 25.782 43.8822 25.782C43.0002 25.782 42.4682 24.97 42.4682 23.612C42.4682 22.128 43.0282 21.232 43.9802 21.232C44.6942 21.232 45.1282 21.666 45.2402 22.52L46.5842 22.338C46.4582 21.596 46.3042 21.232 45.9542 20.826C45.4922 20.266 44.7642 19.958 43.8962 19.958C42.0622 19.958 40.8162 21.414 40.8162 23.542C40.8162 25.698 41.9922 27.14 43.7562 27.14C44.6802 27.14 45.4362 26.79 45.9402 26.132C46.2622 25.726 46.4162 25.362 46.5842 24.606L45.2402 24.466ZM51.7617 24.466C51.5517 25.334 51.0897 25.782 50.4037 25.782C49.5217 25.782 48.9897 24.97 48.9897 23.612C48.9897 22.128 49.5497 21.232 50.5017 21.232C51.2157 21.232 51.6497 21.666 51.7617 22.52L53.1057 22.338C52.9797 21.596 52.8257 21.232 52.4757 20.826C52.0137 20.266 51.2857 19.958 50.4177 19.958C48.5837 19.958 47.3377 21.414 47.3377 23.542C47.3377 25.698 48.5137 27.14 50.2777 27.14C51.2017 27.14 51.9577 26.79 52.4617 26.132C52.7837 25.726 52.9377 25.362 53.1057 24.606L51.7617 24.466ZM58.5351 27H59.9911V20.098H58.4371V23.416C58.4371 24.102 58.3671 24.494 58.2271 24.844C57.9891 25.404 57.4291 25.81 56.8831 25.81C56.5471 25.81 56.2111 25.628 56.0431 25.348C55.9451 25.166 55.9031 24.956 55.9031 24.592V20.098H54.3071V24.928C54.3071 25.558 54.4051 25.922 54.6571 26.3C55.0491 26.86 55.6091 27.14 56.3511 27.14C56.9111 27.14 57.4011 26.972 57.8071 26.636C58.1711 26.342 58.3391 26.09 58.5351 25.502V27ZM66.236 24.788C65.914 25.6 65.466 25.922 64.682 25.922C63.646 25.922 63.03 25.208 63.03 23.934V23.738H67.762C67.748 21.302 66.642 19.958 64.654 19.958C62.722 19.958 61.406 21.414 61.406 23.57C61.406 25.74 62.652 27.14 64.584 27.14C66.124 27.14 67.188 26.384 67.65 24.984L66.236 24.788ZM63.03 22.73C63.156 21.638 63.716 21.05 64.598 21.05C65.102 21.05 65.508 21.26 65.802 21.652C66.04 21.974 66.124 22.212 66.152 22.73H63.03ZM69.1548 19.286H70.7088V17.662H69.1548V19.286ZM69.1548 27H70.7088V20.098H69.1548V27ZM72.5864 27H74.1404V17.662H72.5864V27Z" fill="#212121"/></svg>