<svg viewBox="0 0 56 56" xmlns="http://www.w3.org/2000/svg" id="francebleu-square"><path d="M56 56H0V0h56v56Z" fill="#0077D7"/><path d="M46.557 15.056a3.057 3.057 0 0 1-1.02.174c-1.613 0-2.92-1.24-2.92-2.77 0-.427.101-.83.283-1.192h-3.584a5.743 5.743 0 0 0-.125 1.192c0 3.324 2.841 6.02 6.345 6.02a6.72 6.72 0 0 0 1.021-.078v-3.346Zm-1.02-5.366c1.612 0 2.919 1.24 2.919 2.77 0 .47-.124.912-.341 1.3h3.617c.097-.419.149-.854.149-1.3 0-2.564-1.69-4.753-4.07-5.62V4.12H44.67v5.694c.273-.08.564-.124.866-.124Z" fill="#BFDDF5"/><path d="M38.452 32.953c0 .547-.089 1.063-.822 1.063-.419 0-.604-.258-.604-.556 0-.402.258-.62.959-.62h.467v.113Zm1.127.709v-1.748c0-.999-.612-1.434-1.723-1.442-1.145 0-1.63.483-1.758 1.119l1.065.218c.049-.306.161-.507.645-.507.54 0 .644.29.644.588v.25h-.596c-1.224 0-1.981.443-1.981 1.393 0 .644.419 1.304 1.425 1.304.741 0 1.023-.274 1.176-.507 0 .105.024.33.056.41h1.104c-.025-.096-.057-.676-.057-1.078Zm11.142-1.466c-.008-.483-.201-.894-.765-.894-.548 0-.773.379-.822.894h1.587Zm-1.61.709c0 .523.265 1.03.837 1.03.483 0 .62-.193.733-.442h1.152c-.146.507-.605 1.344-1.909 1.344-1.377 0-1.973-1.022-1.973-2.118 0-1.312.668-2.246 2.013-2.246 1.426 0 1.917 1.038 1.917 2.077 0 .145 0 .234-.016.355H49.11Zm-1.255.49c-.137.694-.629 1.442-1.869 1.442-1.296 0-1.965-.894-1.965-2.15 0-1.232.75-2.214 2.022-2.214 1.4 0 1.795 1.014 1.812 1.481h-1.12c-.072-.338-.266-.572-.717-.572-.531 0-.83.46-.83 1.265 0 .894.323 1.296.822 1.296.403 0 .612-.233.717-.547h1.127Zm-7.812-1.77c0-.355 0-.742-.008-1.056h1.12c.023.113.04.403.048.532.136-.258.475-.628 1.208-.628.837 0 1.377.571 1.377 1.618v2.65h-1.152v-2.52c0-.476-.153-.814-.668-.814-.492 0-.765.274-.765 1.014v2.32h-1.16v-3.117Zm-6.515.08c0-.42 0-.782-.008-1.136h1.135c.016.097.032.508.032.733.186-.475.629-.822 1.337-.83v1.104c-.837-.024-1.337.201-1.337 1.345v1.82h-1.16v-3.036Zm-1.92 3.036v-3.302h-.34v-.87h.34v-.362c0-.862.427-1.426 1.329-1.426.185 0 .427.017.531.049v.91a2.03 2.03 0 0 0-.241-.016c-.339 0-.467.12-.467.571v.274h.588v.87h-.588v3.302h-1.152Zm20.244 12.662c0 1.354 0 2.875.028 4.146h-3.87c-.056-.387-.084-1.161-.111-1.658-.857 1.437-2.101 1.99-3.954 1.99-2.902 0-4.754-1.77-4.754-5.308v-9.344h3.953v8.542c0 1.576.498 2.876 2.211 2.876 1.797 0 2.544-.968 2.544-3.788v-7.63h3.953v10.174Zm-17.819-4.59c-.027-1.659-.69-3.068-2.626-3.068-1.88 0-2.654 1.3-2.82 3.069h5.446Zm-5.529 2.433c0 1.797.913 3.539 2.875 3.539 1.66 0 2.13-.664 2.516-1.52h3.953c-.497 1.74-2.073 4.616-6.552 4.616-4.727 0-6.772-3.511-6.772-7.27 0-4.507 2.294-7.714 6.91-7.714 4.894 0 6.58 3.567 6.58 7.133 0 .497 0 .801-.055 1.216h-9.455Zm-5.157 6.303h-4.12V32.502h4.12v19.047ZM11.003 40.077c-2.267 0-3.069 1.464-3.069 4.395 0 2.405.72 4.257 3.014 4.257 2.018 0 3.096-1.797 3.096-4.506 0-2.405-.912-4.146-3.041-4.146Zm-6.856-8.709h3.98v7.382c.581-.913 1.77-1.853 4.092-1.853 3.898 0 5.833 3.235 5.833 7.243 0 4.091-2.1 7.74-6.22 7.74-2.128 0-3.068-.635-3.76-1.686 0 .47-.083.996-.165 1.355H4.119c.028-1.548.028-3.124.028-4.672V31.368Z" fill="#fff"/></svg>
