<svg viewBox="0 0 88 44" xmlns="http://www.w3.org/2000/svg" id="francebleu-rect"><path d="M0 0h88v44H0z" fill="#0077D7"/><path d="M52.212 15.892c0 .43-.07.835-.645.835-.33 0-.475-.203-.475-.437 0-.316.203-.487.753-.487h.367v.089Zm.886.556v-1.373c0-.784-.48-1.126-1.354-1.132-.9 0-1.281.379-1.381.878l.837.172c.038-.24.126-.399.506-.399.424 0 .506.228.506.462v.197h-.468c-.962 0-1.557.348-1.557 1.094 0 .506.33 1.025 1.12 1.025.582 0 .804-.215.924-.398 0 .082.02.26.045.322h.866c-.019-.076-.044-.531-.044-.848Zm8.754-1.151c-.006-.38-.158-.703-.6-.703-.431 0-.608.298-.646.703h1.246Zm-1.265.556c0 .412.209.81.658.81.38 0 .487-.151.576-.347h.905c-.114.398-.475 1.056-1.5 1.056-1.082 0-1.55-.803-1.55-1.664 0-1.031.525-1.765 1.581-1.765 1.12 0 1.507.816 1.507 1.632 0 .114 0 .184-.013.279h-2.164Zm-.986.387c-.108.544-.494 1.132-1.468 1.132-1.019 0-1.544-.702-1.544-1.69 0-.967.588-1.74 1.588-1.74 1.101 0 1.411.798 1.424 1.165h-.88c-.057-.266-.209-.45-.563-.45-.418 0-.652.361-.652.994 0 .703.254 1.019.646 1.019.316 0 .48-.184.563-.43h.886Zm-6.138-1.392c0-.279 0-.583-.006-.83h.88c.018.09.03.317.037.418.108-.202.374-.493.95-.493.657 0 1.081.449 1.081 1.271v2.082h-.904v-1.98c0-.374-.12-.64-.526-.64-.386 0-.6.216-.6.798v1.822h-.912v-2.448Zm-5.119.063c0-.33 0-.614-.006-.892h.892c.013.075.025.398.025.575.146-.373.494-.645 1.05-.651v.867c-.657-.02-1.05.158-1.05 1.056v1.43h-.91v-2.385Zm-1.508 2.385v-2.594h-.267v-.683h.267v-.285c0-.677.335-1.12 1.044-1.12.145 0 .335.013.417.038v.715a1.615 1.615 0 0 0-.19-.013c-.265 0-.366.095-.366.45v.215h.462v.683h-.462v2.594h-.905Zm15.906 9.949c0 1.064 0 2.259.022 3.258h-3.042c-.043-.304-.065-.913-.087-1.303-.673 1.13-1.65 1.564-3.106 1.564-2.28 0-3.736-1.39-3.736-4.171v-7.342H55.9v6.712c0 1.238.39 2.26 1.737 2.26 1.412 0 1.998-.761 1.998-2.977v-5.995h3.107v7.994Zm-14-3.606c-.023-1.303-.544-2.411-2.064-2.411-1.477 0-2.085 1.021-2.216 2.411h4.28Zm-4.345 1.912c0 1.411.717 2.78 2.259 2.78 1.303 0 1.673-.521 1.977-1.195h3.106c-.391 1.369-1.63 3.628-5.148 3.628-3.715 0-5.322-2.76-5.322-5.713 0-3.54 1.803-6.06 5.43-6.06 3.845 0 5.17 2.802 5.17 5.604 0 .39 0 .63-.043.956h-7.429Zm-4.052 4.952h-3.237V15.537h3.237v14.966Zm-9.7-9.014c-1.781 0-2.41 1.15-2.41 3.453 0 1.89.564 3.345 2.367 3.345 1.585 0 2.432-1.411 2.432-3.54 0-1.89-.716-3.258-2.389-3.258Zm-5.387-6.843h3.128v5.8c.456-.717 1.39-1.455 3.215-1.455 3.062 0 4.583 2.541 4.583 5.69 0 3.215-1.65 6.082-4.887 6.082-1.673 0-2.411-.5-2.954-1.325 0 .37-.066.783-.13 1.065h-2.976c.021-1.217.021-2.455.021-3.67V14.645Z" fill="#fff"/></svg>
