<svg viewBox="0 0 88 44" xmlns="http://www.w3.org/2000/svg" id="francemusique-rect"><path d="M0 0h88v44H0z" fill="#A90042"/><path d="M55.031 17.676c0 .587-.095 1.14-.88 1.14-.449 0-.647-.277-.647-.596 0-.431.276-.665 1.027-.665h.5v.121Zm1.208.76v-1.873c0-1.07-.656-1.535-1.846-1.544-1.226 0-1.747.517-1.884 1.198l1.142.234c.051-.328.172-.543.69-.543.578 0 .69.31.69.63v.267h-.638c-1.312 0-2.123.474-2.123 1.493 0 .69.449 1.398 1.527 1.398.794 0 1.096-.294 1.26-.544 0 .112.026.354.06.44H56.3c-.026-.104-.06-.725-.06-1.156Zm11.938-1.57c-.009-.518-.216-.958-.82-.958-.587 0-.828.405-.88.957h1.7Zm-1.726.759c0 .56.285 1.104.898 1.104.517 0 .664-.207.785-.474h1.234c-.156.543-.647 1.44-2.045 1.44-1.476 0-2.114-1.096-2.114-2.269 0-1.406.716-2.407 2.157-2.407 1.527 0 2.053 1.113 2.053 2.226 0 .155 0 .25-.017.38h-2.95Zm-1.344.526c-.147.742-.673 1.545-2.002 1.545-1.39 0-2.105-.958-2.105-2.304 0-1.32.802-2.373 2.165-2.373 1.501 0 1.924 1.087 1.942 1.587h-1.2c-.077-.362-.285-.612-.768-.612-.57 0-.889.492-.889 1.355 0 .957.346 1.389.88 1.389.432 0 .656-.25.768-.587h1.209Zm-8.37-1.898c0-.38 0-.794-.009-1.13h1.2c.026.12.043.43.051.569.147-.276.51-.673 1.295-.673.897 0 1.475.612 1.475 1.734v2.839h-1.234v-2.7c0-.51-.163-.872-.716-.872-.526 0-.82.293-.82 1.087v2.485h-1.242v-3.34Zm-6.98.086c0-.449 0-.837-.01-1.216h1.218c.017.103.034.543.034.785.199-.51.673-.88 1.432-.89v1.183c-.897-.026-1.432.216-1.432 1.44v1.95h-1.242V16.34Zm-2.058 3.253v-3.538h-.363v-.931h.363v-.389c0-.923.458-1.527 1.424-1.527.199 0 .458.017.57.051v.976a2.126 2.126 0 0 0-.26-.018c-.361 0-.5.13-.5.613v.293h.63v.932h-.63v3.538H47.7Zm19.679 5.344c-.014-.85-.354-1.573-1.347-1.573-.964 0-1.361.666-1.446 1.573h2.793Zm-2.836 1.248c0 .921.468 1.814 1.475 1.814.85 0 1.092-.34 1.29-.78h2.028c-.256.894-1.064 2.368-3.36 2.368-2.425 0-3.474-1.8-3.474-3.728 0-2.311 1.177-3.956 3.544-3.956 2.51 0 3.374 1.829 3.374 3.658 0 .255 0 .411-.028.624h-4.849Zm-2.794 1.105c0 .695 0 1.475.014 2.127h-1.984c-.03-.199-.043-.595-.057-.85-.44.737-1.078 1.02-2.027 1.02-1.49 0-2.44-.907-2.44-2.722v-4.792h2.028v4.381c0 .808.255 1.474 1.135 1.474.92 0 1.304-.496 1.304-1.942v-3.913h2.027v5.217Zm-11.066.667c1.248 0 1.532-.894 1.532-2.226 0-1.418-.284-2.197-1.489-2.197-1.092 0-1.588.907-1.588 2.226 0 1.303.482 2.197 1.545 2.197Zm1.503.68c-.411.667-1.063.95-2.041.95-1.63 0-3.091-1.219-3.091-3.771 0-2.368 1.418-3.913 3.26-3.913 1.163 0 1.702.482 1.872.865.014-.184.043-.51.071-.695h1.914c0 .624-.014 1.347-.014 2.013v8.139h-1.97v-3.587Zm-7.935-6.564h2.042v7.344H44.25v-7.344Zm0-1.19v-1.815h2.042v1.815H44.25Zm-5.206 6.322c.156.596.638.922 1.39.922.751 0 1.02-.27 1.02-.723 0-.468-.312-.652-1.361-.907-2.396-.596-2.779-1.333-2.779-2.368 0-1.078.752-2.226 2.964-2.226 2.225 0 2.99 1.22 3.047 2.211h-1.928c-.07-.269-.255-.78-1.205-.78-.666 0-.893.299-.893.625 0 .369.227.539 1.418.822 2.453.567 2.807 1.404 2.807 2.481 0 1.22-.936 2.325-3.162 2.325-2.24 0-3.147-1.077-3.317-2.382h2Zm-2.668.085c0 .695 0 1.475.014 2.127h-1.985c-.029-.199-.043-.595-.057-.85-.44.737-1.077 1.02-2.027 1.02-1.489 0-2.438-.907-2.438-2.722v-4.792h2.027v4.381c0 .808.255 1.474 1.134 1.474.922 0 1.304-.496 1.304-1.942v-3.913h2.028v5.217ZM18.26 23.972c0-.638 0-1.262-.014-1.9h1.942c.028.184.071.596.085.88.369-.54.964-1.05 2.042-1.05 1.049 0 1.63.553 1.885 1.12.44-.595 1.064-1.12 2.269-1.12 1.276 0 2.325.794 2.325 2.694v4.82H26.81v-4.565c0-.666-.241-1.318-1.077-1.318-.851 0-1.192.567-1.192 1.686v4.197h-1.998v-4.494c0-.751-.184-1.375-1.05-1.375-.822 0-1.219.51-1.219 1.772v4.097h-2.013v-5.444Z" fill="#fff"/></svg>
