<svg viewBox="0 0 56 56" xmlns="http://www.w3.org/2000/svg" id="francemusique-square"><path d="M0 56h56V0H0v56Z" fill="#A90042"/><path d="M38.296 40.765c0 .547-.089 1.063-.822 1.063-.418 0-.604-.258-.604-.556 0-.403.258-.62.959-.62h.467v.113Zm1.127.708v-1.747c0-.999-.612-1.434-1.723-1.442-1.145 0-1.63.482-1.758 1.118l1.065.22c.049-.307.161-.508.644-.508.54 0 .645.29.645.588v.25H37.7c-1.224 0-1.981.442-1.981 1.392 0 .645.418 1.305 1.425 1.305.741 0 1.023-.274 1.176-.507 0 .104.024.33.056.41h1.103c-.024-.096-.056-.676-.056-1.079Zm11.142-1.465c-.008-.483-.201-.894-.765-.894-.548 0-.773.378-.822.894h1.587Zm-1.61.708c0 .524.265 1.031.837 1.031.483 0 .62-.193.733-.443h1.151c-.145.508-.604 1.345-1.908 1.345-1.377 0-1.973-1.023-1.973-2.118 0-1.313.668-2.247 2.013-2.247 1.425 0 1.917 1.04 1.917 2.078 0 .145 0 .233-.017.354h-2.754Zm-1.256.492c-.137.692-.628 1.441-1.868 1.441-1.297 0-1.965-.894-1.965-2.15 0-1.232.749-2.215 2.021-2.215 1.402 0 1.796 1.015 1.812 1.482H46.58c-.072-.338-.266-.572-.717-.572-.531 0-.83.46-.83 1.265 0 .894.323 1.296.822 1.296.403 0 .612-.233.717-.547h1.127Zm-7.811-1.772c0-.355 0-.741-.008-1.055h1.119c.024.112.04.403.048.531.137-.257.476-.628 1.208-.628.838 0 1.377.572 1.377 1.619v2.65h-1.151v-2.521c0-.475-.153-.813-.668-.813-.492 0-.766.273-.766 1.014v2.32h-1.16v-3.117Zm-6.515.08c0-.419 0-.78-.008-1.135H34.5a8.1 8.1 0 0 1 .032.733c.186-.475.629-.822 1.337-.83v1.104c-.837-.025-1.337.201-1.337 1.344v1.82h-1.16v-3.036Zm-1.92 3.036v-3.301h-.34v-.87h.34v-.362c0-.862.427-1.426 1.329-1.426.185 0 .426.016.531.048v.91a1.99 1.99 0 0 0-.242-.016c-.338 0-.467.121-.467.572v.274h.589v.87h-.589v3.301h-1.151Zm18.366 4.988c-.013-.794-.33-1.468-1.257-1.468-.9 0-1.27.621-1.35 1.468h2.607Zm-2.646 1.165c0 .86.436 1.694 1.376 1.694.794 0 1.019-.318 1.204-.728h1.892c-.238.833-.992 2.21-3.136 2.21-2.262 0-3.242-1.68-3.242-3.48 0-2.158 1.099-3.692 3.309-3.692 2.342 0 3.149 1.706 3.149 3.414 0 .238 0 .383-.027.582h-4.525Zm-2.608 1.032c0 .648 0 1.376.013 1.985h-1.852c-.027-.186-.04-.556-.053-.794-.41.688-1.006.953-1.892.953-1.39 0-2.277-.847-2.277-2.541v-4.473h1.893v4.09c0 .753.238 1.375 1.058 1.375.86 0 1.218-.463 1.218-1.812v-3.653h1.892v4.87Zm-10.328.622c1.164 0 1.43-.834 1.43-2.078 0-1.323-.266-2.05-1.39-2.05-1.02 0-1.482.846-1.482 2.077 0 1.217.45 2.05 1.441 2.05Zm1.402.635c-.384.622-.992.887-1.905.887-1.522 0-2.885-1.138-2.885-3.52 0-2.21 1.324-3.652 3.044-3.652 1.085 0 1.588.45 1.746.807.014-.172.04-.477.067-.649h1.786c0 .583-.013 1.258-.013 1.88v7.595h-1.84v-3.348Zm-7.406-6.127h1.906v6.855h-1.905v-6.855Zm0-1.11v-1.695h1.906v1.694h-1.905Zm-4.859 5.9c.146.557.596.86 1.297.86s.953-.25.953-.675c0-.436-.292-.608-1.27-.846-2.237-.556-2.594-1.244-2.594-2.21 0-1.006.701-2.077 2.766-2.077 2.077 0 2.791 1.138 2.844 2.063h-1.8c-.066-.25-.238-.727-1.124-.727-.622 0-.834.278-.834.582 0 .344.212.503 1.324.768 2.289.53 2.62 1.31 2.62 2.315 0 1.139-.874 2.17-2.951 2.17-2.09 0-2.938-1.005-3.096-2.223h1.865Zm-2.49.08c0 .648 0 1.376.013 1.985h-1.852c-.027-.186-.04-.556-.053-.794-.41.688-1.006.953-1.893.953-1.389 0-2.275-.847-2.275-2.541v-4.473h1.892v4.09c0 .753.238 1.375 1.058 1.375.86 0 1.218-.463 1.218-1.812v-3.653h1.892v4.87ZM3.977 46.64c0-.596 0-1.178-.014-1.774h1.813c.027.172.067.556.08.82.344-.502.9-.978 1.906-.978.978 0 1.521.516 1.76 1.045.41-.556.992-1.045 2.116-1.045 1.191 0 2.17.74 2.17 2.514v4.499h-1.852v-4.26c0-.623-.225-1.232-1.006-1.232-.794 0-1.111.53-1.111 1.575v3.917H7.973v-4.195c0-.701-.172-1.284-.98-1.284-.767 0-1.137.477-1.137 1.654v3.825h-1.88V46.64Z" fill="#fff"/><path d="M45.38 18.48c-3.504 0-6.344-2.696-6.344-6.02 0-.408.043-.806.124-1.192h3.584a2.643 2.643 0 0 0-.283 1.192c0 1.53 1.307 2.77 2.92 2.77.358 0 .703-.062 1.02-.174v3.346a6.707 6.707 0 0 1-1.02.078Zm6.196-4.72H47.96c.217-.388.34-.83.34-1.3 0-1.53-1.306-2.77-2.919-2.77-.302 0-.592.043-.866.124V4.12h3.141v2.72c2.38.868 4.07 3.057 4.07 5.621 0 .446-.052.881-.149 1.3Z" fill="#E8A9CA"/></svg>
