<svg viewBox="0 0 56 56" xmlns="http://www.w3.org/2000/svg" id="mouv-square"><path fill-rule="evenodd" clip-rule="evenodd" d="M0 55.97h55.97V0H0v55.97Z" fill="#00FB8E"/><path d="M49.999 20.004c-.226.174-.162.511-.302.742-.11.362-.274.712-.314 1.092.182.241-.123.515-.062.779-.07.22-.153.433-.105.635-.042.241-.117.471-.152.72a4.63 4.63 0 0 1-.06 1.062 1.65 1.65 0 0 0-.003.82c.06.3.163.595.328.854.32.06.335-.415.37-.64.111-.594.483-1.092.684-1.656.052-.107.065-.392.196-.287.143-.438.218-.895.334-1.34.054-.296.18-.572.242-.865.016-.299.044-.622-.098-.897-.105-.227-.202-.462-.386-.64a1.214 1.214 0 0 0-.632-.364l-.04-.015Zm-24.335-2.52c-1.207.074-2.427.247-3.582.628-.9.443-1.974.728-2.788 1.39-.404.144-.864.625-1.35.936-.646.597-1.458 1.202-1.866 1.952-.366.043-.167.405-.49.789-.398.51-.743 1.04-.77 1.688-.169.477-.287 1.167-.297 1.774-.03.98 0 1.978.185 2.944.13.802.327 1.58.734 2.282.159.481 1.102 1.494.729 1.624.409.624 1.016 1.068 1.386 1.672.133.47.64.73 1.007 1.129-.06-.498.618.641.481.178.468.568 1.285.693 1.936.992.55.272 1.19.485 1.716.643a15.54 15.54 0 0 0 1.577.21c.794.324 1.625.169 2.407.258 1.438-.151 2.965-.496 4.004-1.57.529-.458 1.066-.746 1.581-1.238.507-.72 1.216-1.088 1.618-1.823.564-.803 1.052-1.703 1.284-2.66.451-1.512.745-3.145.246-4.685-.403-.783-.618-1.826-1.484-2.185-.4-.18-.982-.558-.633.17.007 1.303-.126 2.596-.31 3.885a13.59 13.59 0 0 1-1.317 4.56c.382-.787.294.162-.021.17-.421.315-.909 1.427-1.525 1.904-.764.834-1.9 1.168-2.821 1.722-.857.348-1.76.41-2.677.372-.8-.03-1.521-.28-2.272-.482-1.046-.369-2.109-.809-2.898-1.63-.922-.898-1.842-1.874-2.228-3.126-.281-.866-.65-1.702-.667-2.63-.244-.954.332-1.772.278-2.698-.072-1.168.438-2.293.925-3.328.388-.767.947-1.436 1.49-2.096.495-.557 1.275-1.062 1.987-1.433 2.286-1.24 5.232-1.294 7.491.05.646.107 1.11.631 1.668.969.292.272.532.677.896.907.295.337 1.664 1.565.784.657-.74-.71.14.074.3.086.362.078.84.977 1.212 1.36-.15-.52-.423-1.126-.77-1.538a25.67 25.67 0 0 0-1.844-2.22c-.041-.19-.27-.766-.65-.921-.346-.184-.551-.555-.975-.783-.396-.05-.754-.216-1.012-.362.234.308-.886-.288-1.126-.346.558.374-.403-.116-.643-.11-.3-.044-.604-.032-.906-.036Zm6.657 14.206c.313.387-.637 1.336-.172.411.102-.095.035-.34.172-.41Zm10.275-10.382 1.903 13.477h1.76L48.2 21.308h-1.68l-1.112 9.549-.991-9.55h-1.822Zm-6.049 0v11.006c0 1.599 1.113 2.672 2.57 2.672 1.456 0 2.53-1.073 2.53-2.672V21.308h-1.7v11.088c0 .566-.284.891-.83.891-.506 0-.79-.325-.79-.891V21.308h-1.78Zm-25.33-.005 2.393.003v13.471h-1.576v-9.261l-1.36 9.261h-1.27L8.051 25.53v9.247H6.475V21.306l2.391-.003 1.175 8.644 1.176-8.644Zm12.598 6.401a1 1 0 0 0-.107.451c0 .579.495 1.048 1.105 1.048.09 0 .178-.01.263-.03l.123-.036v1.266a2.56 2.56 0 0 1-.387.03c-1.325 0-2.4-1.02-2.4-2.278 0-.103.008-.204.022-.303l.026-.148h1.355ZM25.673 25v1.029c.9.328 1.54 1.156 1.54 2.126 0 .113-.01.223-.026.331l-.03.16h-1.37a1 1 0 0 0 .13-.49c0-.58-.495-1.049-1.105-1.049-.076 0-.15.008-.222.021l-.105.026V25h1.188Z" fill="#262623"/></svg>
