<svg viewBox="0 0 56 56" xmlns="http://www.w3.org/2000/svg" id="franceinter-square"><path d="M0 56h56V0H0v56Z" fill="#E20134"/><path d="M38.452 34.026c0 .548-.089 1.063-.822 1.063-.418 0-.604-.258-.604-.555 0-.403.258-.62.959-.62h.467v.112Zm1.127.709v-1.748c0-.998-.612-1.433-1.723-1.441-1.144 0-1.63.482-1.758 1.118l1.066.218c.048-.305.16-.507.643-.507.54 0 .645.29.645.588v.25h-.596c-1.224 0-1.981.443-1.981 1.393 0 .644.419 1.305 1.425 1.305.741 0 1.023-.274 1.176-.508 0 .105.024.33.056.411h1.104c-.025-.096-.057-.676-.057-1.08Zm11.142-1.466c-.008-.483-.201-.894-.765-.894-.548 0-.773.379-.821.894h1.586Zm-1.61.709c0 .523.265 1.03.837 1.03.483 0 .62-.193.733-.442h1.152c-.145.507-.604 1.345-1.91 1.345-1.376 0-1.972-1.023-1.972-2.118 0-1.313.668-2.247 2.013-2.247 1.426 0 1.917 1.039 1.917 2.078 0 .145 0 .233-.016.354H49.11Zm-1.255.491c-.137.693-.629 1.442-1.869 1.442-1.296 0-1.965-.894-1.965-2.15 0-1.233.75-2.215 2.022-2.215 1.4 0 1.795 1.015 1.812 1.482h-1.12c-.072-.339-.266-.572-.716-.572-.532 0-.83.459-.83 1.264 0 .894.322 1.297.821 1.297.403 0 .612-.234.717-.548h1.128Zm-7.812-1.772c0-.354 0-.74-.008-1.055h1.12c.023.113.04.403.047.532.137-.258.476-.628 1.208-.628.838 0 1.378.572 1.378 1.619v2.65h-1.152v-2.522c0-.475-.153-.813-.668-.813-.492 0-.766.274-.766 1.015v2.32h-1.16v-3.118Zm-6.515.081c0-.419 0-.781-.008-1.136h1.135c.017.097.033.508.033.733.185-.475.628-.821 1.336-.83v1.104c-.837-.024-1.336.201-1.336 1.345v1.82h-1.16v-3.036Zm-1.92 3.036v-3.302h-.34v-.87h.34v-.362c0-.862.427-1.425 1.329-1.425.185 0 .427.016.531.048v.91a2.028 2.028 0 0 0-.241-.016c-.338 0-.467.12-.467.572v.273h.588v.87h-.588v3.302h-1.152Zm12.316 6.083c0-1.335 0-2.49-.026-3.619h3.619c.051.308.102 1.617.102 2.336.59-1.514 2.002-2.618 4.26-2.644v3.517c-2.669-.078-4.26.64-4.26 4.286v5.8h-3.695v-9.676Zm-4.845 1.566c-.025-1.54-.642-2.849-2.438-2.849-1.745 0-2.464 1.206-2.618 2.849h5.056Zm-5.133 2.258c0 1.669.847 3.285 2.67 3.285 1.54 0 1.976-.616 2.335-1.411h3.67c-.462 1.617-1.925 4.286-6.083 4.286-4.388 0-6.287-3.26-6.287-6.75 0-4.184 2.13-7.16 6.416-7.16 4.542 0 6.108 3.31 6.108 6.621 0 .462 0 .745-.051 1.129h-8.778Zm-11.932-7.443h2.053v-3.593h3.67v3.593h2.618v2.772h-2.618v6.57c0 1.002.308 1.386 1.412 1.386.205 0 .564 0 .821-.025v2.515c-.719.257-1.72.257-2.464.257-2.592 0-3.439-1.386-3.439-3.722v-6.98h-2.053v-2.773ZM9.655 41.64c0-1.129 0-2.36-.025-3.362h3.567c.077.36.129 1.284.154 1.694.437-.821 1.515-2.002 3.85-2.002 2.67 0 4.389 1.823 4.389 5.159v8.444h-3.67V43.54c0-1.514-.488-2.593-2.13-2.593-1.566 0-2.439.873-2.439 3.234v7.392H9.655V41.64ZM4.12 38.278h3.696v13.295H4.119V38.278Zm0-2.155v-3.285h3.696v3.285H4.119Z" fill="#fff"/><path d="M45.536 18.48c-3.504 0-6.345-2.696-6.345-6.02 0-.408.044-.806.125-1.192H42.9a2.64 2.64 0 0 0-.283 1.192c0 1.53 1.307 2.77 2.92 2.77.358 0 .703-.062 1.02-.174v3.346a6.708 6.708 0 0 1-1.02.078Zm6.196-4.72h-3.617c.217-.388.34-.83.34-1.3 0-1.53-1.306-2.77-2.919-2.77-.302 0-.593.043-.866.124V4.12h3.141v2.72c2.38.868 4.07 3.057 4.07 5.621 0 .446-.052.881-.149 1.3Z" fill="#F8A7C4"/></svg>
